<svg width="114" height="116" viewBox="0 0 114 116" fill="none" xmlns="http://www.w3.org/2000/svg">
<path d="M70.5113 95.9172C68.7436 96.629 68.1544 98.0526 67.3196 99.2863C64.8154 102.988 62.6058 103.415 59.1195 100.662C57.7937 99.6185 57.4009 100.093 56.959 101.327C56.468 102.56 56.468 103.794 56.9099 105.028C57.2045 105.835 57.6464 106.641 57.8919 107.448C58.383 108.919 57.892 110.105 56.6644 111.007C55.8296 111.671 54.7985 111.671 53.9146 111.054C52.638 110.2 52.4907 109.014 52.8344 107.685C53.2763 106.024 54.1111 104.459 53.2763 102.655C52.7362 101.517 52.3925 100.852 51.0667 101.944C48.9062 103.747 46.7457 104.126 44.2905 102.086C43.0139 100.995 41.0989 100.947 39.724 101.896C38.3 102.845 38.8401 104.459 39.1839 105.835C39.233 106.072 39.3803 106.262 39.4294 106.499C40.2641 108.872 39.8222 110.295 38.1036 110.817C36.2868 111.386 34.6664 110.105 34.0281 107.733C33.6844 106.357 33.8808 104.838 32.8005 103.699C32.3095 103.177 31.7694 102.608 30.9346 102.845C30.1981 103.082 30.149 103.747 29.9526 104.364C29.3633 106.641 30.2963 108.729 31.0328 110.817C31.6221 112.43 31.7203 113.901 30.2963 115.135C29.1178 116.179 27.6939 116.179 26.3681 115.657C24.6986 114.993 23.6674 113.807 23.471 111.908C23.2255 109.204 24.7477 106.879 25.1896 104.316C25.6807 101.754 24.7968 100.947 22.1944 101.659C21.4087 101.896 20.7213 102.276 19.9848 102.703C17.6769 103.984 16.4494 103.604 15.3691 101.279C14.7799 100.046 14.4853 98.7169 13.5032 97.7204C13.0613 97.2933 12.5703 97.0086 11.981 97.1984C11.2936 97.4357 11.3427 98.0526 11.3918 98.622C11.5391 100.14 12.0792 101.517 12.6194 102.94C13.1104 104.316 13.2577 105.692 11.49 106.309C9.77141 106.879 8.98577 105.74 8.44565 104.364C7.6109 102.133 7.75821 99.9032 8.29834 97.6255C8.44564 96.9612 8.78936 96.107 8.05282 95.6325C7.21808 95.0631 6.77616 96.0596 6.23603 96.4392C3.48628 98.3847 1.62039 97.7204 1.03115 94.5411C0.540128 90.8874 0 87.2336 0 83.4849C0 79.0719 2.20962 76.4146 6.03962 74.6114C10.7535 72.3812 15.7619 70.9102 20.8195 69.7714C28.3813 68.1106 36.0413 66.7819 43.5049 64.8838C56.959 61.4673 66.9759 53.448 74.5868 42.4392C79.1534 35.7959 83.769 29.1527 90.2506 24.0754C91.0362 23.4585 91.0362 22.7942 91.0362 21.9875C91.0853 18.6184 89.8086 15.7239 87.6972 13.0666C84.0145 8.41631 84.6529 5.47431 89.8577 2.48485C90.5452 2.05779 91.2817 1.72563 92.0182 1.39346C98.9908 -1.64344 103.263 0.254624 105.227 7.37238C106.553 12.165 106.405 17.0525 105.816 21.94C105.669 23.0789 105.374 24.1703 106.307 25.2617C115.44 36.0332 116.079 47.8487 110.137 60.0438C102.723 75.2758 90.447 85.9524 75.1761 93.6396C73.8012 94.3513 71.9844 94.636 72.9173 96.9137C73.1629 97.5306 72.6718 98.3847 71.6898 98.2898C70.364 98.1475 70.9041 96.8663 70.5113 95.9172Z" fill="#6BA129"/>
<path d="M51.3125 66.0228C62.557 61.2776 71.2973 53.7328 77.877 43.8154C82.5909 36.7451 87.8449 30.1967 94.5228 24.7873C96.536 23.2688 98.7456 23.4112 101.053 23.9806C102.625 27.9191 102.085 32.0474 101.692 36.0808C100.366 49.7943 93.3935 60.9929 84.3586 71.1476C82.8364 72.8558 81.4615 74.7539 79.5465 76.1774C78.5645 76.9367 77.6315 77.9806 76.1093 77.4586C70.9536 72.9033 64.6684 72.144 58.0887 72.3338C56.5174 72.3813 54.9952 72.144 53.4731 71.8119C49.9377 71.195 49.1029 68.9173 51.3125 66.0228Z" fill="#FDBE00"/>
<path d="M51.3127 66.0232C49.9869 70.2464 50.3306 70.6735 54.799 71.3852C58.5308 71.9547 62.3116 71.3852 65.9943 72.097C69.9717 72.9037 73.8017 73.9476 76.355 77.3167C76.4532 77.4116 76.5023 77.554 76.4532 77.6489C76.4041 77.7438 76.355 77.7912 76.355 77.7912C69.677 82.6787 61.7715 84.4819 53.7187 85.9055C47.5318 86.9968 41.1975 87.1866 34.9615 86.7596C25.5338 86.1427 16.2534 84.5768 7.46406 81.0654C6.62931 80.7332 5.25444 80.5909 5.35264 79.4995C5.40175 78.5979 6.482 78.0285 7.41495 77.6489C13.2582 75.1339 19.2978 73.3782 25.5338 72.1445C34.225 70.4362 42.9652 69.155 51.3127 66.0232Z" fill="#9CC964"/>
<path d="M76.3547 77.8382C76.3547 77.6959 76.3547 77.5061 76.3547 77.3637C77.7296 77.1739 78.6625 76.2249 79.5464 75.3707C85.7824 69.1071 91.2819 62.2741 95.4065 54.5394C100.513 45.0491 101.888 34.847 101.25 24.3127C100.611 23.6009 100.562 22.7468 100.464 21.8927C99.8748 16.7204 98.4509 11.738 96.585 6.89794C96.1921 5.90146 95.5538 4.85752 96.3886 3.76613C97.3706 3.67123 98.3527 3.48142 99.2856 3.90849C101.544 5.7591 101.692 8.46385 102.232 10.9788C102.772 12.0227 102.134 13.2565 102.625 14.3004C102.625 15.4392 102.625 16.5306 102.625 17.6695C102.134 18.7609 102.772 19.9472 102.232 20.9911C101.201 23.8382 102.33 25.8312 104.245 28.1563C111.61 37.1721 112.249 47.2319 107.535 57.5289C101.397 70.9103 90.8891 80.543 78.2697 88.2301C77.6805 88.6098 76.8457 89.1317 76.2565 88.6572C75.6673 88.1827 76.2074 87.3286 76.3547 86.7117C76.8948 84.5764 77.3368 82.3936 77.1894 80.1634C77.2385 79.2618 77.2876 78.3602 76.3547 77.8382Z" fill="#C5A64C"/>
<path d="M96.3397 3.9078C98.2547 9.5071 100.513 15.0589 101.054 21.0379C101.152 22.1292 101.201 23.2206 101.25 24.312C98.9912 24.1222 96.7325 24.4544 94.5229 24.7865C95.063 19.377 93.6881 14.5844 90.1037 10.3612C88.3851 8.36826 88.6306 7.32432 90.7911 5.94822C92.2151 5.04664 93.639 4.14505 95.4067 3.86034C95.7013 3.62309 96.0451 3.62309 96.3397 3.9078Z" fill="#D39E00"/>
<path d="M96.3395 3.90812C95.9958 3.90812 95.7011 3.86067 95.3574 3.86067C96.6832 3.19635 98.009 3.1489 99.2856 3.86067C98.3527 3.90812 97.3706 3.90812 96.3395 3.90812Z" fill="#B38809"/>
<path d="M102.723 14.2991C101.888 13.2552 102.429 12.0689 102.33 10.9775C103.116 11.974 102.674 13.1603 102.723 14.2991Z" fill="#B38809"/>
<path d="M102.281 20.9899C102.428 19.8985 101.839 18.6648 102.674 17.6683C102.674 18.8071 103.067 19.946 102.281 20.9899Z" fill="#B38809"/>
</svg>
