<svg width="115" height="117" viewBox="0 0 115 117" fill="none" xmlns="http://www.w3.org/2000/svg">
<path d="M70.7867 96.0188C69.019 96.7306 68.4298 98.1541 67.595 99.3879C65.0908 103.089 62.8812 103.516 59.3949 100.764C58.0691 99.72 57.6763 100.195 57.2344 101.428C56.7434 102.662 56.7434 103.896 57.1853 105.13C57.4799 105.936 57.9218 106.743 58.1673 107.55C58.6584 109.021 58.1673 110.207 56.9398 111.108C56.105 111.773 55.0739 111.773 54.19 111.156C52.9134 110.302 52.7661 109.115 53.1098 107.787C53.5517 106.126 54.3864 104.56 53.5517 102.757C53.0116 101.618 52.6679 100.954 51.3421 102.045C49.1816 103.848 47.0211 104.228 44.5659 102.188C43.2893 101.096 41.3743 101.049 39.9994 101.998C38.5754 102.947 39.1155 104.56 39.4593 105.936C39.5084 106.173 39.6557 106.363 39.7048 106.601C40.5395 108.973 40.0976 110.397 38.379 110.919C36.5622 111.488 34.9418 110.207 34.3035 107.834C33.9598 106.458 34.1562 104.94 33.0759 103.801C32.5849 103.279 32.0448 102.709 31.21 102.947C30.4735 103.184 30.4244 103.848 30.228 104.465C29.6387 106.743 30.5717 108.831 31.3082 110.919C31.8975 112.532 31.9957 114.003 30.5717 115.237C29.3932 116.281 27.9692 116.281 26.6435 115.759C24.974 115.094 23.9428 113.908 23.7464 112.01C23.5009 109.305 25.0231 106.98 25.465 104.418C25.956 101.855 25.0722 101.049 22.4698 101.76C21.6841 101.998 20.9967 102.377 20.2601 102.804C17.9523 104.086 16.7248 103.706 15.6445 101.381C15.0553 100.147 14.7607 98.8185 13.7786 97.822C13.3367 97.3949 12.8457 97.1102 12.2564 97.3C11.569 97.5373 11.6181 98.1541 11.6672 98.7235C11.8145 100.242 12.3546 101.618 12.8948 103.042C13.3858 104.418 13.5331 105.794 11.7654 106.411C10.0468 106.98 9.26116 105.841 8.72104 104.465C7.88629 102.235 8.0336 100.005 8.57373 97.7271C8.72104 97.0627 9.06475 96.2086 8.32821 95.7341C7.49347 95.1647 7.05155 96.1612 6.51142 96.5408C3.76167 98.4863 1.89578 97.822 1.30654 94.6427C0.815519 90.9889 0.275391 87.3351 0.275391 83.5865C0.275391 79.1734 2.48501 76.5162 6.31501 74.713C11.0289 72.4828 16.0373 71.0118 21.0949 69.8729C28.6567 68.2121 36.3167 66.8835 43.7803 64.9854C57.2344 61.5689 67.2513 53.5495 74.8622 42.5407C79.4288 35.8975 84.0444 29.2543 90.5259 24.1769C91.3116 23.5601 91.3116 22.8957 91.3116 22.0891C91.3607 18.72 90.084 15.8254 87.9726 13.1681C84.2899 8.51788 84.9282 5.57587 90.1331 2.58642C90.8206 2.15935 91.5571 1.82719 92.2936 1.49503C99.2662 -1.54188 103.538 0.356187 105.502 7.47394C106.828 12.2666 106.681 17.1541 106.091 22.0416C105.944 23.1805 105.65 24.2718 106.582 25.3632C115.716 36.1348 116.354 47.9502 110.412 60.1453C102.998 75.3773 90.7224 86.0539 75.4515 93.7411C74.0766 94.4529 72.2598 94.7376 73.1927 97.0153C73.4382 97.6322 72.9472 98.4863 71.9652 98.3914C70.6394 98.249 71.1795 96.9678 70.7867 96.0188Z" fill="#7B6780"/>
<path d="M51.5879 66.1244C62.8324 61.3792 71.5727 53.8344 78.1524 43.917C82.8663 36.8467 88.1203 30.2983 94.7982 24.8888C96.8114 23.3704 99.021 23.5127 101.329 24.0822C102.9 28.0207 102.36 32.149 101.967 36.1823C100.641 49.8959 93.6689 61.0945 84.634 71.2491C83.1118 72.9574 81.7369 74.8555 79.8219 76.279C78.8399 77.0383 77.9069 78.0822 76.3847 77.5602C71.229 73.0049 64.9438 72.2456 58.3641 72.4354C56.7928 72.4829 55.2706 72.2456 53.7484 71.9135C50.2131 71.2966 49.3783 69.0189 51.5879 66.1244Z" fill="#FDBE00"/>
<path d="M51.5881 66.1248C50.2623 70.348 50.606 70.775 55.0743 71.4868C58.8061 72.0562 62.587 71.4868 66.2697 72.1986C70.247 73.0053 74.077 74.0492 76.6304 77.4183C76.7286 77.5132 76.7777 77.6555 76.7286 77.7504C76.6795 77.8453 76.6304 77.8928 76.6304 77.8928C69.9524 82.7803 62.0469 84.5835 53.9941 86.007C47.8072 87.0984 41.4729 87.2882 35.2369 86.8611C25.8092 86.2443 16.5288 84.6784 7.73945 81.1669C6.9047 80.8348 5.52983 80.6924 5.62803 79.601C5.67714 78.6995 6.75739 78.13 7.69034 77.7504C13.5336 75.2355 19.5732 73.4798 25.8092 72.246C34.5004 70.5378 43.2406 69.2566 51.5881 66.1248Z" fill="#A597A9"/>
<path d="M76.6301 77.9398C76.6301 77.7974 76.6301 77.6076 76.6301 77.4653C78.005 77.2755 78.9379 76.3264 79.8218 75.4723C86.0578 69.2087 91.5573 62.3756 95.6819 54.641C100.789 45.1507 102.163 34.9486 101.525 24.4143C100.887 23.7025 100.838 22.8484 100.739 21.9942C100.15 16.822 98.7263 11.8396 96.8604 6.99951C96.4675 6.00302 95.8292 4.95908 96.6639 3.86769C97.646 3.77279 98.628 3.58298 99.561 4.01005C101.82 5.86067 101.967 8.56541 102.507 11.0804C103.047 12.1243 102.409 13.358 102.9 14.402C102.9 15.5408 102.9 16.6322 102.9 17.771C102.409 18.8624 103.047 20.0487 102.507 21.0927C101.476 23.9398 102.605 25.9327 104.52 28.2579C111.886 37.2737 112.524 47.3334 107.81 57.6305C101.672 71.0118 91.1645 80.6445 78.5451 88.3317C77.9559 88.7113 77.1211 89.2333 76.5319 88.7588C75.9427 88.2843 76.4828 87.4301 76.6301 86.8133C77.1702 84.6779 77.6121 82.4952 77.4648 80.2649C77.5139 79.3633 77.563 78.4618 76.6301 77.9398Z" fill="#B5AC94"/>
<path d="M96.6151 4.00936C98.5301 9.60866 100.789 15.1605 101.329 21.1394C101.427 22.2308 101.476 23.3222 101.525 24.4136C99.2666 24.2238 97.0079 24.5559 94.7983 24.8881C95.3384 19.4786 93.9635 14.686 90.379 10.4628C88.6605 8.46982 88.906 7.42588 91.0665 6.04978C92.4905 5.1482 93.9144 4.24662 95.6821 3.96191C95.9767 3.72465 96.3205 3.72465 96.6151 4.00936Z" fill="#D39E00"/>
<path d="M96.6149 4.00969C96.2711 4.00969 95.9765 3.96224 95.6328 3.96224C96.9586 3.29791 98.2844 3.25046 99.561 3.96224C98.6281 4.00969 97.646 4.00969 96.6149 4.00969Z" fill="#B38809"/>
<path d="M102.999 14.4007C102.164 13.3567 102.704 12.1704 102.606 11.079C103.391 12.0755 102.949 13.2618 102.999 14.4007Z" fill="#B38809"/>
<path d="M102.556 21.0915C102.704 20.0001 102.114 18.7663 102.949 17.7698C102.949 18.9087 103.342 20.0475 102.556 21.0915Z" fill="#B38809"/>
</svg>
