<svg width="146" height="43" viewBox="0 0 146 43" fill="none" xmlns="http://www.w3.org/2000/svg">
<path fill-rule="evenodd" clip-rule="evenodd" d="M40.1712 40.0248H0.000732422V0H40.1712V40.0248Z" fill="white"/>
<path fill-rule="evenodd" clip-rule="evenodd" d="M16.0929 27.012L20.3521 23.5689C19.6459 22.6786 18.9722 21.7605 18.3293 20.8333C13.3846 13.6972 10.4708 6.42523 12.5824 0H0V6.93848L16.0929 27.012Z" fill="#E94D11"/>
<path fill-rule="evenodd" clip-rule="evenodd" d="M22.8253 16.636C23.0899 14.3735 23.772 10.0958 27.9309 6.92728C31.5328 4.18256 36.0306 3.65703 40.0219 5.34958V0H17.8126C16.3453 6.51661 20.2014 13.6726 22.8253 16.636Z" fill="#E94D11"/>
<path fill-rule="evenodd" clip-rule="evenodd" d="M28.2071 10.1114L28.1925 10.1237C24.0145 13.5155 25.0431 18.8419 28.9263 23.6226C31.928 27.3189 35.9378 29.907 40.0228 27.9448V12.1977C36.3541 8.44115 31.9498 7.07121 28.2071 10.1114Z" fill="#E94D11"/>
<path fill-rule="evenodd" clip-rule="evenodd" d="M0 15.1499V40.0243H0.00237485L12.113 30.2307L0 15.1499Z" fill="#E94D11"/>
<path fill-rule="evenodd" clip-rule="evenodd" d="M22.0199 25.5482C20.8386 26.5267 19.3648 27.7294 17.729 29.0525L19.2995 31.0117C21.5805 33.858 24.9031 38.7781 29.0289 37.4472L29.1806 37.6345L26.2519 40.0242H40.0222V30.5532C32.9364 34.4067 26.8498 30.9002 22.0199 25.5482Z" fill="#E94D11"/>
<path fill-rule="evenodd" clip-rule="evenodd" d="M15.3744 34.2929L13.7471 32.2657C10.4119 34.9456 6.8903 37.7582 4.04395 40.0242H19.4557C18.4536 37.8967 16.6335 35.8616 15.3744 34.2929Z" fill="#E94D11"/>
<path fill-rule="evenodd" clip-rule="evenodd" d="M73.3701 16.723C77.0542 16.078 79.4495 12.8894 79.4495 8.81606C79.4495 3.40821 74.768 0 66.7407 0H50.8638V0.181763C54.1055 1.96246 54.0324 4.83194 54.0324 7.56765V32.3873C54.0324 35.1821 54.1055 38.0817 50.8638 39.8302V40.012H58.5086C65.9805 40.012 71.7 40.1391 75.9833 38.1286C80.524 35.9943 83.2831 32.1686 83.2831 27.486C83.2831 21.5272 78.8417 17.8788 73.3701 16.723ZM60.2608 3.68721L65.2813 3.77327C69.0077 3.77327 72.8213 5.59518 72.8213 9.79242C72.8213 14.7783 69.4518 16.116 64.6442 16.116L60.2608 16.1249V16.116V3.68721ZM65.1025 35.895L60.2608 35.9029V20.1294V19.9037L65.4631 19.8838C71.527 19.8838 76.5308 22.1363 76.5308 28.0338C76.5308 33.8131 71.2781 35.895 65.1025 35.895Z" fill="#006383"/>
<path fill-rule="evenodd" clip-rule="evenodd" d="M95.4504 32.3952C95.4504 35.8025 95.3889 38.236 98.6112 40.1191V40.301H87.8481V40.1191C91.0736 38.236 91.0177 35.8025 91.0177 32.3952V8.08083C91.0177 4.67589 91.0736 2.00579 87.8537 0.181781V0H96.7883V0.0613985C97.0314 0.791972 97.4196 1.19153 97.7018 1.58093C97.982 1.96917 98.5509 2.79592 98.5509 2.79592L119.042 30.4204V7.84548C119.042 4.44021 119.104 2.00579 115.879 0.181781V0H126.583V0.181781C123.42 2.00579 123.42 4.44021 123.42 7.84548V42.2848C121.473 41.5092 116.017 36.9762 112.138 31.7581C105.182 22.3987 95.4504 9.39859 95.4504 9.39859V32.3952Z" fill="#006383"/>
<path fill-rule="evenodd" clip-rule="evenodd" d="M136.558 7.24975C136.558 4.45376 136.518 1.96458 133.408 0.18184V0H146V0.18184C142.883 1.91218 142.855 4.51405 142.855 7.24975V32.8315C142.855 35.5636 142.783 38.3227 146 40.1124V40.2931H133.408V40.1124C136.644 38.304 136.558 35.585 136.558 32.8505V7.24975Z" fill="#006383"/>
</svg>
