<svg width="53" height="41" viewBox="0 0 53 41" fill="none" xmlns="http://www.w3.org/2000/svg">
<g clip-path="url(#clip0_141_3224)">
<path d="M9.63516 40.7962V38.0826C9.63516 37.0421 8.99875 36.3639 7.9079 36.3639C7.36258 36.3639 6.77171 36.5447 6.36262 37.1328C6.04462 36.6352 5.59019 36.3639 4.90843 36.3639C4.45379 36.3639 3.99956 36.4994 3.63581 36.997V36.4543H2.6814V40.7962H3.63581V38.399C3.63581 37.6303 4.0449 37.2683 4.68132 37.2683C5.31732 37.2683 5.63573 37.6754 5.63573 38.399V40.7962H6.59015V38.399C6.59015 37.6303 7.04437 37.2683 7.63524 37.2683C8.27165 37.2683 8.58965 37.6754 8.58965 38.399V40.7962H9.63516ZM23.7694 36.4543H22.2243V35.1427H21.2699V36.4543H20.4064V37.3134H21.2697V39.3037C21.2697 40.2988 21.6788 40.8866 22.7696 40.8866C23.1787 40.8866 23.633 40.7511 23.9514 40.5702L23.6785 39.7559C23.4058 39.9368 23.0878 39.9822 22.8605 39.9822C22.4061 39.9822 22.2243 39.7108 22.2243 39.2584V37.3134H23.7694V36.4543ZM31.8593 36.3636C31.314 36.3636 30.9505 36.6352 30.7232 36.997V36.4543H29.7687V40.7962H30.7232V38.3539C30.7232 37.6303 31.0412 37.2232 31.632 37.2232C31.8138 37.2232 32.0411 37.2685 32.2229 37.3137L32.4956 36.4092C32.3138 36.3639 32.0411 36.3639 31.8593 36.3639V36.3636ZM19.6337 36.8161C19.1791 36.4994 18.5429 36.3639 17.8611 36.3639C16.7705 36.3639 16.0434 36.9065 16.0434 37.7659C16.0434 38.4897 16.5887 38.8966 17.5431 39.0324L17.9976 39.0777C18.4975 39.1679 18.7702 39.3037 18.7702 39.5299C18.7702 39.8464 18.4067 40.0726 17.7702 40.0726C17.134 40.0726 16.6341 39.8464 16.3159 39.6204L15.8614 40.3439C16.3614 40.7057 17.0432 40.8866 17.7247 40.8866C18.9973 40.8866 19.7246 40.2988 19.7246 39.4846C19.7246 38.7157 19.1338 38.3086 18.2247 38.173L17.7702 38.1277C17.3612 38.0824 17.0432 37.9921 17.0432 37.7208C17.0432 37.4041 17.3612 37.2232 17.8611 37.2232C18.4067 37.2232 18.952 37.4492 19.2246 37.585L19.6337 36.8161ZM44.994 36.3639C44.4485 36.3639 44.085 36.6352 43.8576 36.997V36.4543H42.9032V40.7962H43.8576V38.3539C43.8576 37.6303 44.1758 37.2232 44.7665 37.2232C44.9485 37.2232 45.1758 37.2685 45.3576 37.3137L45.6302 36.4092C45.4485 36.3639 45.1758 36.3639 44.994 36.3639ZM32.8138 38.6252C32.8138 39.9368 33.7226 40.8866 35.1317 40.8866C35.7679 40.8866 36.2223 40.7511 36.6768 40.3893L36.2223 39.6204C35.8588 39.8917 35.4952 40.0273 35.0861 40.0273C34.3135 40.0273 33.7682 39.4846 33.7682 38.6252C33.7682 37.8112 34.3135 37.2683 35.0861 37.2232C35.4952 37.2232 35.8588 37.3588 36.2223 37.6303L36.6768 36.8614C36.2223 36.4994 35.7679 36.3639 35.1317 36.3639C33.7226 36.3639 32.8138 37.3137 32.8138 38.6252ZM41.6308 38.6252V36.4543H40.6764V36.997C40.3582 36.5901 39.9038 36.3639 39.3129 36.3639C38.0858 36.3639 37.1314 37.3137 37.1314 38.6252C37.1314 39.9368 38.0858 40.8866 39.3129 40.8866C39.9491 40.8866 40.4037 40.6606 40.6764 40.2535V40.7962H41.6308V38.6252ZM38.1311 38.6252C38.1311 37.8563 38.6311 37.2232 39.4491 37.2232C40.2218 37.2232 40.7673 37.8112 40.7673 38.6252C40.7673 39.3941 40.2218 40.0273 39.4491 40.0273C38.6311 39.9819 38.1311 39.3941 38.1311 38.6252ZM26.7237 36.3639C25.4511 36.3639 24.542 37.2683 24.542 38.6252C24.542 39.9822 25.4509 40.8866 26.7691 40.8866C27.4053 40.8866 28.0417 40.7057 28.5417 40.2988L28.087 39.6204C27.7235 39.8917 27.2691 40.0726 26.8146 40.0726C26.2237 40.0726 25.6329 39.8013 25.4964 39.0321H28.7234V38.6706C28.769 37.2683 27.951 36.3639 26.7237 36.3639ZM26.7237 37.1779C27.3144 37.1779 27.7237 37.5399 27.8144 38.2183H25.542C25.6329 37.6303 26.042 37.1779 26.7237 37.1779ZM50.4023 38.6252V34.7356H49.4479V36.997C49.1297 36.5901 48.6753 36.3639 48.0844 36.3639C46.8573 36.3639 45.9029 37.3137 45.9029 38.6252C45.9029 39.9368 46.8573 40.8866 48.0844 40.8866C48.7208 40.8866 49.1752 40.6606 49.4479 40.2535V40.7962H50.4023V38.6252ZM46.9029 38.6252C46.9029 37.8563 47.4026 37.2232 48.2208 37.2232C48.9935 37.2232 49.5388 37.8112 49.5388 38.6252C49.5388 39.3941 48.9935 40.0273 48.2208 40.0273C47.4026 39.9819 46.9029 39.3941 46.9029 38.6252ZM14.9979 38.6252V36.4543H14.0435V36.997C13.7253 36.5901 13.2708 36.3639 12.68 36.3639C11.4529 36.3639 10.4985 37.3137 10.4985 38.6252C10.4985 39.9368 11.4529 40.8866 12.68 40.8866C13.3164 40.8866 13.7708 40.6606 14.0435 40.2535V40.7962H14.9979V38.6252ZM11.4529 38.6252C11.4529 37.8563 11.9529 37.2232 12.7709 37.2232C13.5435 37.2232 14.089 37.8112 14.089 38.6252C14.089 39.3941 13.5435 40.0273 12.7709 40.0273C11.9529 39.9819 11.4529 39.3941 11.4529 38.6252Z" fill="black"/>
<path d="M19.3157 3.48254H33.6319V29.082H19.3157V3.48254Z" fill="#FF5F00"/>
<path d="M20.2247 16.2824C20.2247 11.0811 22.6788 6.4677 26.4509 3.48253C23.6788 1.31159 20.1793 0 16.3617 0C7.31711 0 0 7.28172 0 16.2824C0 25.2828 7.31711 32.5647 16.3615 32.5647C20.1791 32.5647 23.6786 31.2531 26.4509 29.082C22.6788 26.1421 20.2247 21.4836 20.2247 16.2824Z" fill="#EB001B"/>
<path d="M52.9475 16.2824C52.9475 25.2828 45.6304 32.5647 36.586 32.5647C32.7684 32.5647 29.2689 31.2531 26.4966 29.082C30.3142 26.097 32.723 21.4836 32.723 16.2824C32.723 11.0811 30.2687 6.4677 26.4966 3.48253C29.2687 1.31159 32.7684 0 36.586 0C45.6304 0 52.9475 7.32705 52.9475 16.2824Z" fill="#F79E1B"/>
</g>
<defs>
<clipPath id="clip0_141_3224">
<rect width="53" height="41" fill="white"/>
</clipPath>
</defs>
</svg>
