<svg width="50" height="50" viewBox="0 0 50 50" fill="none" xmlns="http://www.w3.org/2000/svg">
<circle cx="25" cy="25" r="25" fill="#FEBF00"/>
<path d="M31.25 32.5C31.913 32.5 32.5489 32.7634 33.0178 33.2322C33.4866 33.7011 33.75 34.337 33.75 35C33.75 35.663 33.4866 36.2989 33.0178 36.7678C32.5489 37.2366 31.913 37.5 31.25 37.5C30.587 37.5 29.9511 37.2366 29.4822 36.7678C29.0134 36.2989 28.75 35.663 28.75 35C28.75 33.6125 29.8625 32.5 31.25 32.5ZM11.25 12.5H15.3375L16.5125 15H35C35.3315 15 35.6495 15.1317 35.8839 15.3661C36.1183 15.6005 36.25 15.9185 36.25 16.25C36.25 16.4625 36.1875 16.675 36.1 16.875L31.625 24.9625C31.2 25.725 30.375 26.25 29.4375 26.25H20.125L19 28.2875L18.9625 28.4375C18.9625 28.5204 18.9954 28.5999 19.054 28.6585C19.1126 28.7171 19.1921 28.75 19.275 28.75H33.75V31.25H18.75C18.087 31.25 17.4511 30.9866 16.9822 30.5178C16.5134 30.0489 16.25 29.413 16.25 28.75C16.25 28.3125 16.3625 27.9 16.55 27.55L18.25 24.4875L13.75 15H11.25V12.5ZM18.75 32.5C19.413 32.5 20.0489 32.7634 20.5178 33.2322C20.9866 33.7011 21.25 34.337 21.25 35C21.25 35.663 20.9866 36.2989 20.5178 36.7678C20.0489 37.2366 19.413 37.5 18.75 37.5C18.087 37.5 17.4511 37.2366 16.9822 36.7678C16.5134 36.2989 16.25 35.663 16.25 35C16.25 33.6125 17.3625 32.5 18.75 32.5ZM30 23.75L33.475 17.5H17.675L20.625 23.75H30Z" fill="#773B30"/>
</svg>
