<svg width="23" height="26" viewBox="0 0 23 26" fill="none" xmlns="http://www.w3.org/2000/svg">
<path d="M9.85714 0C8.05 0 6.57143 1.4625 6.57143 3.25H3.28571C1.47857 3.25 0 4.7125 0 6.5H23C23 4.7125 21.5214 3.25 19.7143 3.25H16.4286C16.4286 1.4625 14.95 0 13.1429 0H9.85714ZM3.28571 9.75V25.3825C3.28571 25.74 3.54857 26 3.91 26H19.1229C19.4843 26 19.7471 25.74 19.7471 25.3825V9.75H16.4614V21.125C16.4614 22.035 15.7386 22.75 14.8186 22.75C13.8986 22.75 13.1757 22.035 13.1757 21.125V9.75H9.89V21.125C9.89 22.035 9.16714 22.75 8.24714 22.75C7.32714 22.75 6.60429 22.035 6.60429 21.125V9.75H3.31857H3.28571Z" fill="#773B30"/>
</svg>
