<svg width="1280" height="387" viewBox="0 0 1280 387" fill="none" xmlns="http://www.w3.org/2000/svg">
<g clip-path="url(#clip0_141_2410)">
<path d="M234.999 194.169C-43.0739 29.051 -138.272 123.614 -143.487 142.256C-149.212 183.063 -182.963 310.03 -184.135 321.093C-185.599 334.922 52.9169 585.614 113.918 590.962C162.718 595.24 1045.9 506.793 1470.39 483.329L1490.7 175.256C1464.97 114.281 1427.79 -47.0252 1289.23 27.5699C1116.05 120.814 1020.23 188.313 826.868 111.404C548.265 0.590937 514.106 359.899 234.999 194.169Z" fill="#FED33F"/>
<path d="M275.808 192.027C13.2422 9.68523 -81.8883 98.23 -87.566 116.532C-94.5054 156.949 -131.474 281.707 -132.988 292.688C-134.881 306.414 86.5504 571.793 145.22 580.944C192.156 588.265 1047.35 555.016 1457.72 558.066L1488 251.509C1465.29 188.977 1435.01 25.4788 1298.74 91.3659C1128.41 173.725 1033.63 235.189 849.73 146.272C584.77 18.1585 539.348 375.046 275.808 192.027Z" fill="#FEBF00"/>
</g>
<defs>
<clipPath id="clip0_141_2410">
<rect width="1280" height="387" fill="white"/>
</clipPath>
</defs>
</svg>
